<?xml version='1.0' encoding='utf-8'?>
<svg xmlns="http://www.w3.org/2000/svg" enable-background="new 0 0 4697.9463 5000" version="1.1" viewBox="0 0 4697.9 5e3"> <path d="m2805.3 181.07c77.292 91.267 213.94 88.154 352.47 127.43 121.73 34.511 235.33 107.28 292.59 163.64 54.839 53.974 110.51 146.98 120.04 155.39-0.1611-94.609-56.012-203.79-121.46-269.48-72.059-72.324-171.23-115.13-270.83-132.64-128.96-22.67-235.84-2.1528-311.64-46.852-83.077-48.994-124.21-165.6-132.53-178.56-2.4207 28.174 23.309 124.34 71.352 181.07z"/> <path d="m3965.4 1371.9c201.09-45.945 441.34-26.173 657.17-125.06 56.737-25.994 93.375-76.55 66.24-130.6-24.205-48.142-83.213-82.406-123.22-117.02-203.66-186.73-283.89-284.58-492.57-353.72-101.28-33.558-183.13-51.314-367.45-28.848-121.85 14.861-123.33 36.532-137.9 33.23-2.9656-0.6716-57.045-119.22-185.3-205.46-206.13-138.58-484.3-102.12-602.5-256.92-12.334-16.151-21.537-35.305-30.81-53.328 1.8608 13.253 8.502 24.85 13.726 37.02 66.282 154.34 190.63 181.88 298.1 250.97 188.1 120.92 197.26 300.14 257.72 470.17 129.04-84.23 234.22-158.07 343.21-194.03 168.13-55.466 425.23-29.792 686.53 161.25 54.567 39.902 81.363 64.417 231.79 189.27 32.074 26.825 69.294 58.084 58.988 101.4-7.7505 32.585-42.554 59.366-70.374 75.079-35.863 20.256-76.027 31.209-115.88 40.477-226.06 52.598-409.11-1.5835-641.97 81.125-13.52 4.8057-27.467 12.854-40.911 16.661 11.603-16.414 43.018-30.755 60.794-39.877 186.99-95.998 429.36-66.172 619.74-103.95 48.267-9.5787 149.48-36.902 159.12-84.902 8.96-44.532-53.794-82.047-102.09-119.78-121.14-94.636-194.96-158.17-367.34-219.89-22.349-7.9979-46.871-20.039-70.158-23.701l30.967 21.401c51.389 42.04 98.128 103.45 104.35 171.8 21.584 237.08-271.72 352.3-440.74 203.26-101.28-89.315-103.26-236.17-24.361-324.96 25.043-28.174 44.916-33.694 51.833-43.538-18.065 4.5145-84.894 33.149-126.4 64.127-44.904 33.507-83.853 76.894-126.39 113.53-28.929 24.916-61.585 44.819-90.555 69.784 68.337-6.424 121.34-2.1631 182.9 29.726-141-4.9634-226.49 40.379-267.86 50.073-159.18 37.275-302.88-75.084-430.5-154.62-29.428 12.173-58.347 21.023-86.47 36.594 276.61 117.49 297.35 200.28 412.31 478.82 48.562 102.83 117.06 184.09 187.05 275.32 28.533 40.227 10.589 33.592 63.189 50.068 44.325 13.889 135.79 35.034 177.22 28.793 46.644-8.0042 112.94-72.338 145.97-105.92-15.395 42.025-34.481 76.34-67.354 106.94 84.446-5.2833 161.25-13.619 294.94-75.558 147.24-68.21 432.8-248.57 559.51-376.91 46.38-46.971 79.812-82.416 49.407-141.55-83.069 64.062-214.82 80.544-314.56 95.234-332.48 51.413-217.99 29.864-504.7 92.874-104 26.352-212.79 67.52-321.35 59.503 137.52-20.188 224.7-75.876 436.91-124.38zm272.66-359.67c10.874 3.2358 53.292 83.83 133.64 102.66 19.998 4.6863 64.978-2.3347 66.628 27.19 0.751 13.59-8.0991 21.254-16.626 30.437-79.986 43.682-220.9-107.56-183.65-160.28zm-779.8 652.44c227.71-30.264 379.72-78.85 903.84-232 26.222-7.8661 53.547-20.912 80.329-25.53-87.767 53.85-189.45 87.141-287.08 118.3-336.02 98.871-525.34 159.58-697.09 139.24zm1054.1-266.94c11.976-6.9735 25.404-16.63 38.48-20.766-10.782 12.813-25.107 23.08-38.163 33.559-136.08 109.15-356.44 193.49-522.22 247.34-145.66 47.325-302.48 72.276-428.08 166.26 79.456-127.18 350.55-157.27 610.89-262.76 312.8-144.26 245-110.59 339.08-163.63zm-926.87 159.03c82.595-10.112 186.04-63.669 807.31-171.6 19.141-3.5443 40.623-10.347 60.026-9.767-176.3 59.851-422.86 108.93-753.24 181.64-132.42 17.694-167.22 23.246-209.28 21.688-138.46-5.1613-240.96-201.77-152.6-363.17 4.2615-7.7756 8.7844-17.341 15.698-22.964-5.8594 16.696-12.692 32.384-16.384 49.765-32.316 152.26 86.364 334.24 248.46 314.41zm95.731-168.35c-50.916 92.855-182.76 103.11-247.82 23.963-32.226-39.207-41.979-95.697-24.765-143.44 40.131-111.3 200.77-130.28 266.81-32.261 31.295 46.451 31.256 105.27 5.7764 151.74z"/> <path d="m2741 629.91c174.17 149.26 58.944 85.835 471.56 292.28-252.08-458.27-532.34-398.08-677.09-529.48-45.237-41.063-62.246-87.405-83.52-142.49 74.114 84.659 79.714 102.38 280.47 197.21 315.22 148.9 396.08 297.11 508.08 488.63 15.45-10.286 30.774-21.385 47.748-29.005-55.188-164.11-107.98-376.02-283.85-455.68-180.96-81.96-413.77-61.133-544.08-202.56-7.9473-8.6208-21.87-42.362-28.592-45.881 9.0215 35.381 17.564 72.695 30.124 106.96 51.621 140.85 169.65 226.19 279.15 320.02z"/> <path d="m2371.7 934.69c29.791-90.674 96.988-215.63 93.131-263.23-23.623-4.0646-273.88 30.408-386.33 104.09 156.51 83.086 90.485 47.336 293.2 159.14z"/> <path d="m2812.5 739c-101.14-28.834-218.33-44.279-323.46-37.946 56.865 61.873 119.72 134.28 149.26 214.02 105.39-111.12 65.561-70.651 174.2-176.07z"/> <path d="m2388.8 968.51 131.76-13.025 105.51 2.6223c-17.614-42.382-92.822-178.84-141.81-241.16l-95.461 251.56z"/> <path d="m3823.9 724.6c-178.51 16.569-307.16 99.128-435.03 174.08-53.628 29.671-105.83 47.979-144.31 95.234l-403.28-234.08c-62.663 77.154-143.18 145.28-206.95 199.45 109.57 16.235 94.728 16.016 106.29 16.036 9.6819-17.765 15.597-41.022 26.731-57.047 8.6128-12.394 64.018-54.706 95.179-63.754 27.916-8.1086 60.451-7.6599 89.305-7.0997-60.474 23.554-162.12 78.237-201.28 129.25 23.16 6.2829 47.672 15.924 70.994 20.11 51.101-31.66 166.98-93.541 216.59-100.7l23.705 12.646c-121.5 61.879-107.86 51.933-119.38 60.274 38.535 17.69 81.16 28.793 121.16 43.235 123.43 44.577 185.57 83.229 302.16 39.978 105.88-39.295 133.37-72.621 184.04-123.39 61.101-61.227 118.34-106.44 201.7-133.63 70.814-23.1 141.07-44.848 216.12-44.455 60.004 0.3236 85.3 19.968 89.33 13.983-72.336-32.524-153.97-46.83-233.08-40.124z"/> <path d="m2009.4 1051.6 47.068-296.85-6.4597 0.368-330.65 148.2c0.2622 26.312 0.5392 51.933 4.4677 78.019 79.371 16.617 22.984 3.1143 285.58 70.269z"/> <path d="m3924.4 804.8c-206.11 41.041-158.56 354.55 63.032 329.35 209.15-49.255 152.31-352.47-63.032-329.35zm34.95 301.2c-181.18-8.0944-189.12-257.74-10.644-275.58 166.28 1.9878 208.04 258.72 10.644 275.58z"/> <path d="m2080.5 817.01-51.671 264.3c202.15-79.518 136.4-56.88 291.81-102.31-52.456-43.945-182.56-136.72-240.14-161.99z"/> <path d="m4026.2 888.72c-0.1409 39.085-25.878 57.49-63.738 56.083-36.827-1.3715-47.974-30.364-57.41-54.328-24.73 39.918-28.433 76.372-2.8789 118.16 67.768 70.892 159.84 21.459 159.38-53.099-0.166-27.2-14.573-46.497-31.556-66.048l-3.7973-0.7663z"/> <path d="m1419.8 1255.1c115.07-7.0874 151.83-2.0334 264.51 22.077-21.725-353.1-12.962-318.55-18.799-347.09-96.609 61.27-255.8 185.48-280.41 209.97 31.104 115.86 28.864 111.09 34.698 115.05z"/> <path d="m894.96 1721.2c-80.3 131.77-152.34 287.68-150.85 300.82l-1.4644 1.6719 221.33-129.85-69.018-172.64z"/> <path d="m3209.9 2821c39.506-131.91 110.41-196.13 212.04-256.65l101.89-58.478c-201.8-39.167-396.27 52.612-475.84 244.82-10.126 24.462-16.096 50.194-22.425 75.82-40.971-32.403-64.233-73.012-80.006-122.26-45.015-140.56 4.1699-306.23 77.706-428.42 42.309-70.287 39.137-65.881 83.959-89.007 116.57-60.145 219.25-116.82 308.66-215.73 94.453-104.45 72.446-120.56 27.997-177.02-47.304-60.092-100.91-113.89-171.54-145.76-94.16-42.489-216.42-56.805-314.16-19.727 56.208-51.028 82.744-64.684 153.21-60.204 94.868 6.0303 164.32 46.787 188.56 54.743-184.94-251.1-122.68-400.39-347.22-523.43-27.215-14.911-55.302-30.059-84.488-40.784-80.255-29.502-209.31-50.065-369.32-35.515-227.34 20.676-460.62 95.251-739.29 303-206.64 154.06-591.38 629.98-735.6 804.78l-0.8925-2.9446-76.733-178.87-204.16 74.836-2.52 2.8759c3.8127 25.954 91.07 141.46 111.17 174.16 53.91-25.465 108.56-42.524 165.13-60.536l-264.58 342.58c-126.11 149.11-354.24 310.37-581.86 763.24-509.71 1014.2 225.58 1853.6 938.93 1743.8 805.47-123.99 1093.3-1085 498.15-1508.9-308.85-219.97-725.9-151.44-928.9 135.52-177.02 250.22-137.72 607.46 136.29 798.53 225.54 157.27 515.71 97.129 661.39-116.92 254.9-374.59-196.21-813.7-517.18-582.46-146.27 105.41-165.34 316.53-68.181 449.06 87.408 119.24 255.87 133.82 360.21 54.344 97.11-73.968 121.58-217.57 46.851-311.8-74.747-94.225-201.45-91.671-276.3-30.765-92.807 75.515-29.808 224.47 64.596 232.18 98.617 8.0508 135.05-98.414 91.427-142.01-39.386-39.373-99.831-18.965-96.782 17.76 19.63 12.51 55.445-11.858 72.598 24.028 11.208 23.441-22.92 64.488-73.697 42.928-37.606-15.975-52.243-55.57-35.076-90.908 25.789-53.134 98.235-61.163 151.55-31.678 53.639 29.669 87.465 100.67 48.267 168.04-40.552 69.698-107.54 77.663-101.28 76.022-181.63 47.611-321.24-238.08-130.03-369.97 130.2-89.818 288.67-62.873 374.77 63.95 93.099 137.13 70.217 346.57-105.64 461.59-167.07 109.28-383.97 71.736-508.5-119.47-133.45-204.89-63.331-492.47 146.62-625.66 255.44-162.01 586.3-69.593 739.74 180.39 186.12 303.22 17.504 723.48-269.57 897.72-346.64 210.38-754.07 85.145-937.41-219.57-227.36-377.87-54.75-938.25 272.42-1221 154.72-133.73 402.95-256.79 650.14-292.27 184.59-26.504 395.31-6.677 561.22-106.08l-118.37-202.99c-128.82 88.064-409.07 124.48-547.74 108.63-357.04-40.842-206.7-358.16 11.119-644.46 263.04-345.72 669.88-724.58 1075.3-875.56 209.4-78.023 430.55-101.24 564.73 77.545 48.822 65.045 81.01 146.75 68.247 229.01-26.768 172.55-394.77 572.24-482.03 655.14-69.582 66.103-145.03 124.67-222.34 181.39-5.6963 52.456-34.264 263.08-0.3633 350.96 153-29.257 274.05-172.7 325.58-312.63 47.4-128.73 51.113-293.34 229.21-509.93 40.634-49.421 50.952-54.991 49.942-54.188-1.1917 3.5021-59.982 89.894-59.321 88.865-41.158 64.117-77.918 130.59-103.59 202.49 71.816 82.558 171.91 131.9 243.97 138.27 9.8027 0.8672 25.425-1.417 32.792 4.8608-13.518 15.384-36.943 20.293-56.896 20.761-88.749 2.0774-172.8-69.401-233.28-126.48l-31.269 85.991c83.717 58.903 167.99 107.29 272.27 111.86-24.088 15.935-45.615 26.484-74.988 26.554-74.504 0.1865-157.83-54.546-209.16-104.63-32.524 83.168-51.434 182.26-50.744 271.53 0.8828 114.02 36.942 205.67 97.776 300.78 31.093 48.606 67.475 95.663 108.95 135.87 106.77 103.5 230.84 123.74 267.46 113.18 24.374-7.0327 79.943-67.148 195.16-67.677 123.34-0.5547 237.2 61.636 322.92 147.1-20.572-223.01-187.24-335.23-401.64-354.12zm-1606.3 11.522c-0.2832 7.4648-121.07 6.8191-323 48.116-611.34 125.02-1046.6 542.88-1038.7 1159.7 6.1431 482.68 397.09 802.44 803.58 795.46 379.48-6.5127 713.54-318.52 741.47-713.56 3.6761-51.999-0.3022-101.51-1.3363-153.34 6.1517 16.413 7.8058 34.93 10.312 52.2 35.209 242.8-71.92 517.47-294.78 683.72-330.9 246.85-856.02 199.91-1151-200.06-251.56-341.15-238.73-734.23-87.297-1121.1 102.86-262.82 215.02-408.17 401.19-617.18 82.671-86.359 170.41-185.34 249.48-243.19-5.1534 71.7-0.8673 142.51 44.082 201.91 141.04 186.37 488.9 102.71 646.01 107.31zm1362-1650.1c15.732 5.0081 22.906 16.234 38.904 32.393 87.62 88.533 130.15 201.84 182.35 312.25-38.384-17.362-77.5-23.342-119.32-21.219-8.6426-31.586-2.593-167.88-71.05-281.98-8.9306-14.891-20.644-27.492-30.881-41.445zm-46.422 973.52c-91.951-62.112-93.525-186.16-30.462-276.69 87.86-126.11 248.28-146.77 321.81-92.804 84.956 62.353 45.852 215.13-16.161 298.44-63.73 85.602-187.04 130.6-275.18 71.056zm7.322 712.42c-254.25-35.239-305.39-327.21-165.6-476.98 5.1614 4.6284 5.1829 13.757 24.739 33.281 34.038 33.962 77.999 48.233 121.19 66.926l-14.533 42.101c-63.844-33.049-116.18-28.963-151.12 34.183-21.335 38.55-23.09 85.815-10.251 127.33 31.383 101.45 126.59 144.92 227.82 175.81l-32.247-2.642zm-43.849-144.51c-2.3374 2.9404-5.095 5.5945-8.3694 7.8638-8.6128 5.9685-19.452 8.5273-29.84 7.3599-9.8865-1.1111-18.681-7.5088-26.76-13.058-10.893-7.4824-20.046-17.359-27.186-28.448-14.281-22.179-21.142-49.959-16.681-76.141 3.8481-22.584 16.551-48.516 39.541-56.428 30.3-10.428 57.259 11.666 70.592 37.2 12.693 24.307 16.408 53.618 12.516 80.596-2.0444 14.172-4.8141 29.736-13.813 41.056z"/> <path d="m1972.1 1108.7c-84.67-43.038-171.54-57.369-262.12-80.999l-4.6135 274.27 143.94-116.55 122.79-76.723z"/> <path d="m1199.2 1554.1 239-25.914-46.176-210.4c-181.07 13.269-142.91 10.215-194.17 15.007 13.481-10.1 125.53-48.288 195.51-60.874l-22.742-118.9c-54.778 48.839-209.32 200.94-233.19 243.71l5.5061 1.417c9.0673 12.57 6.7584 11.212 56.26 155.96z"/> <path d="m2700.8 1920.1c94.733-95.159 219.6-251.4 234.07-380.88 16.938-151.5-78.392-299.33-230.86-313.91l-61.747-1.4576c-318.9 26.045-688.81 317.12-919.4 537.24-119.5 123.14-598.16 604.2-584.6 775.67 11.564 146.48 351.61 123.94 626.31-10.801l-21.743-81.836c-83.468 41.66-437.83 141.47-471.47 65.791-2.476-38.799 42.739-90.686 81.206-142.22 217.49-271.87 260.54-343.61 474.14-537.05 207.29-187.73 352.32-290.47 577.5-368.29 80.711-27.9 257.65-82.335 322.12-26.02 73.153 63.908 51.929 247.8-128.61 440.3-101.33 108.05-296.55 259.8-312.04 286.03 7.5078 27.059 9.4141 48.167 8.6877 76.249 53.835-44.828 200.93-112.39 406.42-318.82z"/> <path d="m3595.7 1236.5c64.889 41.122 52.82 130.42-8.009 159.66-77.517 37.258-160.65-49.828-119.84-125.53 22.417-41.582 80.991-63.821 127.85-34.125z"/> <path d="m1465 1542.3c108.89-121.65 66.453-75.294 186.58-203.16l-224.86-1.7747 38.278 204.94z"/> <path d="m985.81 1872.9c107.34-27.369 122.53-26.054 234.5-37.118-26.496-75.577-55.525-131.57-74.156-209.51l-225.72 60.426c79.33-45.247 169.02-72.644 253.04-107.7-48.233-191.22-44.529-161.15-36.065-182.27-17.064 10.972-32.737 34.047-45.893 49.841-65.538 78.69-125.13 160.86-180.93 246.65 11.819 63.615 51.093 119.88 75.226 179.69z"/> <path d="m2540.9 1777.7c44.799-58.666 109.3-129.58 116.47-206.21 4.1426-44.252-21.032-77.146-69.578-78.397l-10.766 0.0154c-93.84 21.485-90.222 108.05-150.11 233.91-57.095 120.03-140.45 184.42-171.43 345.55 99.606-80.724 138.42-102.39 285.42-294.87z"/> <path d="m1210.8 1632.5c41.106 153.23 33.324 122.14 41.44 160.74 191.54-224.62 171.4-196.7 188.27-220.9-32.958 13.778-182.77 53.385-229.71 60.158z"/> <path d="m2045.4 1911.4c48.404-20.649 102.81-33.125 139.21-73.349l-23.367 159.17c104.48-75.303 248.31-336.78 76.184-325.03-121.02 21.635-533.39 265.73-569.6 554.01-1.382 10.978-4.4172 24.764-2.33 35.712l2.5669 8.4207c41.09-25.005 59.947-223.56 377.34-358.94z"/> <path d="m3034 2132.1c216.46-27.787 277.02-352.43 61.766-323.56-104.92 15.6-213.46 114.23-195.71 226.13 10.711 67.554 67.464 103.04 133.94 97.428zm-27.846-130.06c-8.9756-36.754 14.782-66.866 43.784-68.98 39.065-2.8466 65.299 43.364 22.327 82.998-29.175 26.908-58.117 18.717-66.111-14.018z"/> <path d="m1051 2031.5c124.97-147.63 121.12-141.66 126.74-153.94l-4.6388-0.4739-161.54 61.726c35.994 85.006 28.008 66.29 39.448 92.688z"/> <path d="m2362.4 2973.7c-229.37-356.93-7.7043-700.8-200.42-896.8-154.29-156.92-405.97 25.1-361.2 353.49 43.906 321.97 330.88 559.53 385.49 636.98-14.916 14.533-30.699 29.036-43.719 45.298-43.931 54.858-67.773 121.32-68.7 191.53-1.6851 127.85 76.215 230.37 167.6 319.56-18.109-168.81-17.571-362.18 146-406.92 112.26-30.71 263.39 6.0203 376.35 141.51 3.6704-101.5-20.227-177.52-90.47-252.85-153.42-164.52-287.89-129.91-310.94-131.8zm-205.33-374.9c-28.077 57.637-38.485 110.86-39.014 174.71-41.017-58.968-94.095-99.48-153.43-138.3 28.707 50.657 68.393 94.745 101.31 142.69 23.755 34.602 40.855 73.97 61.202 110.67 9.9946 18.017 17.523 24.734 28.597 45.832-28.691-18.694-100.55-113.33-127.9-151.15-91.119-126.03-177.81-275.32-174.72-435.64 4.1122-213.03 176.38-304.27 261.57-211.28 15.098 16.48 24.28 36.221 33.2 56.416 36.216 82.049 35.707 163.2 31.819 250.96l17.281 476.82c-32.096-105.28-56.104-210.82-39.912-321.74z"/> <path d="m836.03 2222.7c-34.219-59.285-78.735-111.08-108.37-173.55-13.085 36.912-91.598 253.94-85.406 278.33 17.865-15.613 27.294-19.495 193.77-104.78z"/> <path d="m2047.4 2161.8c-10.559-3.3228-22.157-3.6963-33.125-3.106-118.66 32.819-150.64 170.12-131.47 296.37 17.634-44.541 46.19-102.44 92.305-122.91 118.2-52.473 150.02 193.28 53.078 223.05-72.165 22.17-84.975-92.733-36.125-101.55 7.12-1.2915 15.687-0.0308 21.431 4.5481 17.004 13.564 0.469 34.567 20.17 43.911 8.4614-3.8831 12.032-8.366 17.559-15.738 32.53-71.332-18.008-128.67-80.591-103.39-49.994 20.188-88.187 101.62-54.389 174.01 29.81 63.864 88.792 86.617 150.42 55.201 145.65-74.277 78.547-419.58-19.268-450.4z"/> <path d="m1524.4 2389.6c41.421 24.527 144.44-5.9253 195.98-32.378l8.3961-26.332c-85.898-0.697-134.98-24.452-154.12-158.88-36.847 63.45-114.64 179.45-50.255 217.59z"/> <path d="m692.89 2512.1c27.609-34.209 229.2-273 228.79-283.67l-0.2573-0.918c-322.71 134.77-260.89 98.145-284.24 111.09-4.0085 13.221-26.04 82.058-21.506 90.348 14.062 25.722 50.731 57.87 77.212 83.148z"/> <path d="m668.89 2534c-23.498-23.604-41.662-48.923-62.432-74.742-36.154 150.5-35.538 145.67-34.073 150.42 50.178-38.929 28.574-22.007 96.505-75.679z"/> <path d="m875.58 2767.7c-42.298-50.219-25.504-118.6-16.384-182.09-48.078 66.696-109.43 242.89-49.286 284.48 41.218 28.521 193.32 41.223 246.38 38.515 63.707-3.252 195.92-29.034 223.79-38.828-120.87-10.011-328.49-11.834-404.5-102.08z"/> <path d="m2854.8 2604.7c-13.066-5.011-26.915 0.5613-35.591 11.193-7.071 8.6648-10.328 20.029-10.477 31.211-0.2942 22.047 8.8271 48.082 31.421 55.919 14.178 4.9185 32.552 1.8201 39.117-12.945 10.118-22.756 7.6976-73.039-24.47-85.378zm2.9331 41.812c-1.2058 0.7966-2.5627 1.3518-4.0051 1.5762-13.802 2.1458-17.144-19.366-3.3442-21.512 5.6316-0.8755 11.552 3.4521 12.428 9.0837 0.6511 4.1893-1.5764 8.5381-5.0784 10.852z"/> <path d="m726.43 2915.4c-34.157-27.407-8.0719-136.9-1.1492-203.38-54.253 59.316-84.191 126.29-94.882 206.07-4.312 32.178-11.742 76.366 12.172 95.88 23.574 19.227 79.018 15.017 107.76 11.003 85.135-11.893 163.03-46.319 294.2-97.947-64.278 4.7903-272.25 25.167-318.1-11.624z"/> <path d="m582.79 3076.2c-12.525-6.5186-15.49-18.484-19.823-31.673-10.992-36.453-0.7061-95.219 11.654-130.64-41.48 48.6-75.114 103.38-96.576 163.69-51.438 144.52-4.5491 92.397-150.56 394.61-12.425 25.712-23.781 56.3-39.504 79.955 3.142-15.146 144.28-359.98 144.6-433.97-27.376 40.29-51.056 84.156-74.151 127.05-137.8 255.94-220.83 564.77-165.52 854.65 17.494 91.727 46.991 165.83 54.38 175.33-27.937-141.91-50.975-287.68-14.432-478.17 42.054-220.12 170.79-448.11 267.88-549.06 86.466-89.917 203.7-144.11 261.28-196.75-42.21 12.114-136.35 47.292-179.23 24.971z"/> </svg>