<?xml version='1.0' encoding='utf-8'?>
<svg xmlns="http://www.w3.org/2000/svg" enable-background="new 0 0 5000 4995.1104" version="1.1" viewBox="0 0 5e3 4995.1"> <path d="m3175.8 880.2c329.07-91.456 420.21-105.28 685.7-120.79 385.85-20.281 365.76 4.968 174.79-158.61-313.98-268.05-705.33-448.37-1111.2-521.98l-308.9-43.135c335.12 393.54 393.87 516.44 559.58 844.5zm11.557-22.115c-28.755-37.879-22.928-40.008-128.63-248.6 137 36.794 282.77 100.68 403.95 174.39-85.304 21.491-29.046 6.5095-275.32 74.208zm305.01-76.201c-317.35-179.42-425.5-176.37-446.47-193.14-1.0632-0.851 10.502 15.788-120.29-192.28 80.095 19.568 159.36 39.369 237.45 66.166 229.01 78.571 460.12 214.61 545.17 286.18-47.632 5.6557-6.626-0.4178-215.85 33.08zm-719.31-598.87c-25.532-3.6032-14.986 2.4923-31.019-18.054l-38.93-46.655c235.92 8.4105 877.64 144.62 1350.6 587.54l-81.342 1.7488c-387-316.94-767.69-459.9-1199.3-524.58z"/> <path d="m3281.2 3709.1c169.39 50.626 306.14 64.178 486.02 71.936-8.3281-236.34-72.935-457.65-84.661-477.93-14.273 0.3801 19.354-4.0757-124.11 16.884 41.451 104.44 65.975 218.05 76.93 329.72-114.05-6.2461-230.73-19.177-340.03-54.17-14.796 108.45-15.476 102.93-14.157 113.56z"/> <path d="m797.26 736.66c34.23 17.308 438.72 18.88 681.95 64.929 252.17 57.419 183.13 39.961 314.41 78.294 129.2-305.59 240.94-438.57 379.03-629.2 178.77-237.64 173.73-206.39 167.65-213.64-239.79 27.474-425.1 52.866-665.99 135.89-279.65 96.374-568.47 260.62-811.75 481.76-25.223 22.924-52.337 45.62-75.615 70.526 2.3307 5.5958 4.7458 8.6186 10.326 11.44zm988.49 122.1c-251.08-66.067-189.96-50.962-285.1-72.084 151.31-97.804 358.42-173.35 403.69-173.23 1.4422 5.4236 7.0627-10.961-118.59 245.32zm166.39-322.31c-38.823 63.918-22.665 48.751-67.93 62.641-200.53 63.83-219.97 77.458-409.5 183.97-20.901 1.9536 62.781 4.6248-213.74-33.329 105.95-109.37 507.85-308.75 771.27-344.21 1.4339 4.0159 9.9434-11.311-80.096 130.93zm-838.03 4.9883c575.27-409.12 1119.6-410.72 1127.8-424.26l15.187-0.498c-1.3477 12.727-36.219 50.594-45.213 61.673-33.868 8.9165 13.013-4.7055-255.63 45.007-587.37 129.78-928.09 464.39-963.75 477.84-9.8651 3.7254-23.751-1.4158-73.643-5.5327 58.313-56.406 129.21-107.25 195.28-154.23z"/> <path d="m3244.6 3652.6c31.007-168.64 32.89-270.19 26.639-376.89 88.772 7.4717 176.05 12.735 265.01 4.1426 540.77-52.253 1048-443.3 1463.8-783.12-398.94-324.51-970.62-824.83-1740.5-794.55 15.039-234.57-2.3799-448.81-108.92-715.4l-98.765 40.837c195.02 496.71 109.63 976.77-172.01 1353l-68.692 83.889c-51.617-31.522-102.93-56.041-159.01-78.489l17.74-89.126c34.47 10.558 80.444 30.3 105.87 56.199 29.123-36.678 53.996-77.876 78.505-117.78 217.5-354.09 233.37-710.56 109.58-1112.5l-329.05 207.89c-80.638-78.997-76.299-73.067-79.815-80.238 154.65-131.09 369.93-235.21 561.71-330.44-153.06-373.43-396.24-641.31-635.1-919.98-9.0732 1.8007 11.278-19.814-164.96 190.85-146.72 183.34-412.95 486.26-553.42 961.3-59.044 199.66-77.178 315.2-74.88 560.01-617.54-30.802-1181.9 293.07-1632.2 723.91-18.921 18.442-39.23 36.896-56.126 57.224 32.487 41.32 272.72 264.23 468.3 398.16 289.06 197.95 631.84 350.6 981.42 392.71 82.595 9.9502 163.97 5.9341 246.7 2.8906-5.2229 175.89-4.985 310.2 58.181 542.01 16.186 59.396 32.916 116.39 57.378 173.05l100.02-40.8c-237.61-623.36-58.182-1167.8 295.86-1463.4-124.03-116.75-235.75-255.72-305.35-412.57 54.925 16.566 111.18 35.194 161.17 63.677 67.444 139.23 172.44 266.41 303.94 349.43-226.46 171.22-379.38 348.99-429.59 709.39-31.865 228.68 0.2938 421.2 67.001 626.26 5.2686 14.562 5.7878 22.479 13.454 32.245 140.59-73.523 207.16-131.86 303.2-208.38l49.673 52.231c7.3826 7.3345 28.584 22.765 31.506 31.109-158.07 135.82-513.94 330.45-753.25 400.38-218.47 63.853-448.47 78.913-619.83 93.966-249.94 15.884-230.6 9.0889-232.3 32.398-1.1895 16.539 6.8864 22.531 208.66 191.46 370.84 288.88 766.8 420.85 1190.9 481.23 22.202 3.1611 131.11 20.096 143.34 15.034-274.31-347.93-361.13-438.3-539.82-839.48l50.656-20.186c137.47 267.07 230.42 439.63 604.57 871.13 6.9597 8.1758 16.35 22.824 25.566 27.812 212.85-251.12 644.22-695.09 763.29-1342.5zm-1088 1158.6c55.905 6.6348 50.724 5.0142 52.854 6.0347 6.0876 2.9219 42.698 50.604 49.409 58.562-205.98-12.12-507.82-93.693-706.23-177.58-230.9-97.618-448.65-237.29-635.64-403.81l72.507-4.5181c353.13 276.91 646.32 425.84 1167.1 521.31zm-220.06-382.1c5.375 4.1768-12.295-13.66 98.781 158.48-271.45-65.744-461.35-126.34-690.32-284.37-29.074-20.07-60.786-38.888-87.118-62.409l211.02-33.952c8.3944 2.8716-2.3654-1.1294 112.33 67.043 207.12 115.71 354.21 154.36 355.31 155.21zm-12.017-21.111c-264.92-104.46-165.67-58.376-433.51-205.58 320.1-85.205 285.79-76.587 293.7-76.973 9.3575 7.2901 65.282 156.41 139.81 282.55zm1309.7-2592.3c28.404-10.03 398.6-30.457 755.61 139.03-69.076 198.57-237.43 481.64-271.54 500.6-11.128-7.4932 4.7363 6.6287-93.945-86.622 49.118-55.944 159.13-214.22 209.02-341.25-182.8-71.383-402.8-106.43-629.63-83.684l30.485-128.08zm269.76 152.42 121.78 22.544c-37.756 97.303-126 247.48-169.05 279.73l-103.07-61.045c38.281-40.918 110.17-150.4 150.34-241.23zm-171.07 232.75c-33.709-18.944-65.891-34.004-102.15-47.417 77.844-117.75 70.098-101.34 115.85-195.82l137.43 8.302c-46.94 92.812-87.252 161.5-151.13 234.94zm-202.94-43.326c84.748 25.509 156 40.403 312.06 150.43 198.85 140.19 378.86 332.4 546.12 685.5 30.459-13.686 58.477-31.891 86.579-49.795-109.96-215.4-126.82-244.66-269.32-436.52 110.9-156.24 204.52-327.43 278.21-504.28 97.285 51.577 532.06 393.65 582.88 490.63-33.76 69.904-119.23 133.77-175.17 180.76-112.26 94.481-240.86 205.1-371.59 288.71-478.49 306.05-1050 266.89-1462-24.372-54.038-38.201-104.59-78.394-150.81-125.94l108.6-167.27 78.959 28.726-70.425 116.94c197.36 169.54 476.94 261.09 733.01 263.21 199.72 1.6504 467.77-80.595 485.03-91.546-352.72-632.46-727.93-652.75-775.14-681.36l62.985-123.83zm-950.16-529.75c-38.789 92.48-28.53 67.054-43.707 107.11-54.107-39.897-124.33-76.893-186.9-101.28l1.0309-124.57c80.941 25.556 159.48 71.513 229.58 118.74zm-225.93-139.69c1.2843-40.626 6.2042-82.754 15.024-122.42 52.184 13.193 211 87.464 276.92 147.55-47.878 80.148-35.763 59.303-55.84 95.657-74.436-48.891-152.56-89.792-236.11-120.78zm396.89-68.396c34.116 25.856 66.012 64.596 93.813 96.984-159.73 201.81-165.66 380.72-181.28 392.14l-121.55-67.212c30.729-156.58 115.24-295.51 209.02-421.91zm60.072 352.51 68.935 111.93 73.87-108.83c32.367 51.343 46.561 121.92 61.082 180.62-14.533 19.393-87.072 64.521-126.98 105.22-3.8086 3.9392 12.317 14.289-137.37-101.54-0.3604-13.912 22.274-109.42 60.469-187.38zm38.735 380.45-46.307 157.34-71.503-43.495c10.204-58.498 26.755-111.94 50.941-166.24 23.447 15.045 45.392 34.634 66.869 52.395zm-24.985 163.19c12.428-90.738 71.238-141.92 138.57-195.53 5.3469 0.7188 9.7087-28.945-50.598 266.26-101.61-71.417-88.531-58.677-87.969-70.731zm88.154 280.36 75.233 37.635c-1.2256 12.714-24.171 40.092-31.806 52.173-48.976 77.49-56.713 110.76-148.32 188.05-14.279 11.7-28.299 22.311-44.152 31.802 25.191-107 71.62-229.5 149.05-309.66zm-28.742 323.94 126.63 105.49c-14.077 62.076-30.131 120.84-56.844 178.83-65.394-93.468-56.985-83.093-63.148-86.431-12.972 6.5269-38.265 52.917-68.866 86.679-28.298-57.431-45.742-118.04-56.48-181.09 43.226-31.5 81.158-65.399 118.71-103.48zm212.61 158.36c12.345 7.1975 116.85 64.528 119.08 70.288-42.779 154.96-86.225 273.31-208.24 423.14l-91.864-100.01c110-136.37 151.87-286.28 181.02-393.42zm72.052 287.1c78.753 51.523 147.73 110.69 240.63 137.37-2.6396 17.838-16.897 126.58-27.574 139.24-42.486-18.928-185.15-106.63-262.37-181.73l49.319-94.875zm240.19 116.27c-68.367-26.502-129.2-54.797-230.98-135.9l39.517-101.01c66.599 41.414 131.49 74.246 204.7 102.45-9.4851 143.52-6.6599 129.16-13.232 134.46zm330.8-686.09 107.69-58.969c70.606 81.013 154.47 211.41 175.31 266.11l-121.03 19.071c-14.035-0.5309-44.58-101.04-161.97-226.21zm134.84 228.3-147.04 5.5747c-31.41-65.399-71.799-127.53-114.17-186.33 115.7-41.181 98.298-35.611 108.49-37.102 18.016 15.624 112.95 131.09 152.72 217.85zm-338.52-192.64c-26.311-36.774-48.125-80.534-69.284-120.58 104.65-31.017 235.24-64.041 383.27-176.24 40.23 22.475 75.725 57.462 108.15 89.876-113.19 97.769-291.85 175.4-422.14 206.94zm-126.08-465.48 161.74 64.041c-3.7864 6.0701-1.2822 3.3398-86.859 66.874 28.023 23.521 61.357 40.246 88.133 65.321-27.059 21.986-104.76 44.596-164.47 64.701l-102.02-123.08c-0.1001-6.389 91.335-121.56 103.47-137.85zm56.088 545.55c-80.746-25.191-156.86-58.708-160.32-61.837-10.108-9.1277-38.243-66.663-109.29-141.42-39.514-41.58-32.481-34.409-72.074-49.171-74.983-28.319-122.5-44.091-193.13-82.05 20.393-20.06 37.836-40.03 54.63-63.238 34.232 8.2178 47.904 13.97 291.69 104.66 100.44 123.67 169.86 245.48 188.48 293.06zm-207.06-329.84-256.59-89.66c8.418-26.892 28.282-56.764 41.334-82.335 167.82 72.168 182.93 82.103 215.26 172zm-178.7-314.9c7.022-67.985 17.478-66.014 34.332-80.043l67.201-52.864c-9.6846 22.498-69.624 104.98-101.53 132.91zm190.35-288.75c-19.576 52.972-14.113 41.597-58.033 77.136-114.31 97.231-125.52 105.29-136.26 122.67-32.871 53.214-19.338 156.42-76.602 263.2l-61.172-39.475c-0.0583-12.343 18.362-145.22 33.576-208.78 37.659-129.1 19.483-97.146 83.255-142.19 76.692-54.18 153.56-106.26 237.09-149.55 8.0063 1.2248 7.8325-3.9318-21.861 76.993zm-27.865-221.47-51.015-114.69 212.56-129.23c11.931-2.729 8.7871-11.681 11.187 131.9-59.782 33.054-119.21 69.485-172.73 112.03zm152.92-395.21c5.5698 5.3153 3.9612 3.2843 17.856 124.21-82.494 39.099-157.33 86.801-231.8 139.19-15.801-29.32-3.2859-8.5884-64.438-104.29 59.618-44.882 242.49-153.29 278.38-159.11zm-515.38-1062.3c82.669 60.049 382.17 412.15 473.53 591.91-169.67 79.165-326.36 174.3-474.67 288.33-168.87-132.24-280.24-190-479.58-289.16 57.948-112.37 348.59-472.56 480.73-591.08zm-689.54 1322.7c2.3622-218.5 54.297-450.87 156.34-644.73l171.19 85.327c268.02 150.64 530.12 350.63 660.32 637.66 17.258 38.052 34.834 78.082 46.111 118.41-5.7803 7.5542-0.9871 3.3295-123.24 84.671-42.715-151.7-78.924-254.69-247.08-435.63-105.43-116.05-203.14-202.82-450.99-340.21-23.234 60.087-74.289 267.24-80.058 428.53-2.515 70.367 2.7635 140.17 12.212 209.86l-141.79-35.733c-5.4056-35.389-3.4085-72.418-3.0228-108.16zm-75.963 1553.2c-152.55 22.682-417.97-3.5525-645.66-96.842-31.077-12.73-70.493-26.866-98.242-45.725l55.428-127.49c41.914-89.895 137.68-260.24 208.04-338.04 9.0646-0.9414-1.5289-8.2466 59.835 50.349 66.667 61.658 20.418-32.537-178.66 358.2 426.67 110.59 394.61 71.057 629.59 80.227l-30.332 119.32zm-232.55-198.18c-6.3411 11.552-13.797 36.663-23.341 44.558-4.2944 3.5562-25.221-0.6797-125.44-15.943 10.183-34.624 85.575-168.9 182.88-275.01l96.598 59.174c-46.54 61.489-93.354 119.19-130.7 187.23zm148.06-179.59 110.88 49.736-111.46 182.02c-48.815 1.2561-18.04 1.7656-149.63-3.9053 44.743-81.554 90.479-156.17 150.2-227.85zm331.8-423.65c15.79 7.5938 36.668 39.036 48.516 53.092l61.79 70.039-108.5 120.2c-88.348-21.864-142.09-32.257-176.29-51.829l86.225-67.122c-28.652-25.038-64.015-43.564-87.773-73.612 60.008-28.245 166.38-50.018 176.04-50.767zm-57.425-87.456c-16.365 12.719-34.634-0.0298-146.67 39.992-145.88 52.1-242.17 127.51-268.39 138.52-30.501-18.036-58.662-54.112-83.694-79.742 67.566-58.286 137.96-114.36 216.26-157.79 76.431-42.393 181.44-77.659 201.09-77.659l81.416 136.68zm-290.92-86.083c-34.681 15.547-64.865 42.444-99.003 56.733-42.069-33.367-158.73-209.59-184.07-262.77 9.283-6.365 122.69-22.11 133.87-23.061 24.445 30.953 32.599 90.336 149.2 229.09zm-126.32-228.86c6.7039-5.7833-10.067-3.8297 137.36-6.0088 41.001 57.257 69.542 121.61 113.73 177.38l-105.51 47.163c-22.937-18.966-107.83-133.85-145.58-218.53zm-373.77 53.282c99.019 171.32 231.37 365.8 385.4 489.76 169.79 136.65 322.1 168.94 403.22 190.19-17.481 47.068-54.693 94.003-80.227 137.53-211.32-51.94-375.22-193.27-521.72-345.7-157.98-164.38-242.7-346.17-316.69-490.56l-86.675 50.587c112.34 246.47 157.24 293.56 258.35 432.8-6.3778 19.463-31.109 45.319-43.469 62.515-126.77 186.42-98.784 148.32-232.54 420.51-134.55-61.35-512.42-359.43-588.28-477.85 6.1429-13.381 16.673-25.069 26.317-36.124 113.07-129.52 281.66-248.27 413.06-345.31 257.49-178.37 484.38-278.63 784.48-299.15l0.2645-0.0638c302.02-17.782 606.13 97.269 847.57 273.32l-35.279 95.119-164.72-101.19c-361.53-179.56-681.62-180.39-1049.1-56.395zm1038.3 232.07c110.05 24.807 232.96 120.08 288.32 191.42-32.285 32.458-34.199 37.35-39.786 37.825-108.1-49.821-181.19-133.94-248.53-229.25zm130.83 339.44c6.3328 2.0195 8.2888-9.4221-20.821 74.562-123.07 57.505-134.92 72.215 20.821-74.562zm-176.13 371.07c13.298-34.5 2.6965-26.087 43.084-48.41 38.032-21.026 80.951-40.901 113.21-70.324 41.345-37.68-13.669-96.065 146.11-328.75 68.595 62.937 68.353 61.766 74.213 70.129-99.4 153.09-123.8 245.01-148.21 332.04-143.38 104.61-210.36 130.62-268.27 155.5l39.865-110.18zm28.943 270.98c5.863 2.5591 5.9146 6.7754 49.118 111.13-65.35 55.877-143.8 105.53-225.32 137.97l-6.9382-137.7 183.14-111.4zm-158.62 409.54-17.639-136.94c85.269-34.417 159.19-80.444 230.82-137.85 8.3711-0.373-1.344-13.04 56.844 89.089-8.434 18.955-170.67 133.7-270.02 185.7zm505.55 1060.8c-131.55-142.31-387.62-426.39-479.99-596.57 167.45-81.253 332.01-181.89 478-297.32 58.395 40.824 305.57 219.12 440.91 271.46l49.905-92.857c-50.165-18.479-100.65-49.8-147.25-76.349-265.82-151.44-524.94-355.91-642.01-647.83-15.589-38.877-24.694-79.308-35.764-119.61 44.225-17.94 86.167-44.347 126.38-69.796 16.786 11.53-5.9407 18.813 55.29 166.56 96.545 232.99 246.71 372.26 452.79 513.23 50.904 34.83 103.68 73.374 160.88 96.905 61.35-133.46 121.43-388.96 95.89-632.13l125.41 32.155c48.732 641.58-311.44 1050.9-680.43 1452.1z"/> <path d="m930.38 3230.7c-35.393 135.9-67.985 247.19-87.615 405.67-21.445 173.05-27.391 418.2-23.933 517.06 12.772 6.7695 83.186 1.2632 103.1 0.793 248.26-5.8452 497.27-24.748 735.72-98.047 91.501-29.529 91.279-28.647 99.188-34.153-40.504-123.1-64.598-178.88-98.908-433.87-106.47 33.752-216.37 47.375-327.13 58.065 5.4799-75.08 12.92-148.92 29.175-222.6 27.93-103.27 28.08-96.821 26.881-101.87-580.26-70.183-911.98-319.34-1364.5-685.66 21.53 450.6 180.79 887.65 440.01 1255.6 114.56 162.59 231.62 284.12 245.01 283.04 7.3983-0.5972 15.176-4.5923 19.589-10.674 8.6308-11.915-1.6463-553.61 136.56-957.5l66.848 24.197zm169.22 53.663 164.55 32.874c-23.432 101.44-53.415 209.95-73.95 468.55 159.29-11.118 317.69-30.623 471.24-75.524l32.409 150.99c-47.037 22.177-329.44 101.25-695.65 115.58-5.0884-75.731 10.004-413.51 101.4-692.47zm-418.59 759.41c-2.1922 7.2605-0.5128 6.6946-5.8288 2.6421-22.487-19.097-100.88-122.03-133.64-166.74-267.58-365.11-392.73-733.71-442.39-1145.9 54.959 43.088 51.489 38.94 53.451 41.905 19.956 30.151 23.383 441.19 365.11 973.47 191.62 298.5 173.72 172.85 163.3 294.6zm52.331-326.49c-36.002-53.578-75.54-103.47-109.68-158.63-116.94-188.97-207.56-435.86-246.05-621.24l133.25 85.406c66.74 41.813 39.924-2.4968 91.272 144.82 33.653 92.664 118.95 277.2 162.46 331.54 4.1274 5.0254 4.3188-11.25-31.262 218.1zm37.53-236.15c-27.172-37.5-112.44-192.41-187.79-412.85l258.35 129.2c-67.75 264.62-53.687 207.02-70.562 283.65z"/> <path d="m1687.1 1278.7c-87.58-24.143-328.89-69.362-492.62-71.561 8.484 156.7 48.449 432.82 74.372 492.6 128.57-19.678 115.87-16.262 114.53-20.836-30.982-108.68-47.142-229.3-56.78-341.77l341.98 64.263 18.511-122.7z"/> <path d="m408.88 2048.4c363.28-249.2 606.47-296.15 706.44-327.08-92.326-236.95-102.65-492.53-113.12-701.68 244.75 1.1359 476.66 32.842 708.53 113.17l54.434-174.2c-86.204-36.276-441.67-133.15-945.84-120.16 17.146 565.74 28.728 561.99 117.65 918.9l-71.334 24.704c-142.98-395.08-120.1-949.38-153.25-980.4-29.205 1.2475-572.01 571.42-674.17 1384.6-6.5635 52.247-13.354 105.12-12.844 157.84 262.62-206.66 176.16-140.19 383.5-295.71zm440.6-260.36c-243.33 116.47-190.91 89.71-264.22 131.5 38.951-145.73 101.85-294.91 187.85-419.64l76.37 288.14zm-115.68-517.58c6.8777 23.854 0.4095 3.5775 36.171 204.4-34.288 63.541-108.02 140.83-198.69 432.83-10.86 36.147 2.6919 17.618-45.203 46.36l-142.37 92.408c17.571-206.27 215.06-621.84 350.09-775.99zm-564.88 859.5c-14.679 82.62-1.7342 63.595-26.739 83.926l-39.107 31.675c37.612-412.83 214.75-879.99 579.91-1322.2 3.9104 24.985 2.4306 52.944 3.2924 78.341-71.107 112.38-352.54 416.9-485.95 977.6l-31.397 150.68z"/> <path d="m3923.2 3261.2c-18.131 5.7024-50.339 11.79-64.554 22.596 67.763 194.12 96.997 476.12 96.039 679.76-243.05 3.1279-479.51-26.671-712.81-95.976l-49.213 162.19c48.209 19.442 101.41 33.176 151.77 45.985 247.94 63.074 537.99 82.183 794.8 77.934-1.833-470.91-31.638-572.24-78.79-801.81-8.8406-35.997-21.111-71.609-28.372-107.92l77.448-31.506c85.401 286.38 117.49 587.59 119.68 885.73 0.291 39.792-7.9438 83.891 31.035 75.524 56.522-55.1 106.1-115.4 155.52-176.8 317.76-394.84 489.34-859.61 541.68-1359.5-311.78 241.6-611.17 490.75-1034.2 623.85zm880.56-474.06c4.1904-8.2432 48.494-38.254 58.328-45.894 9.5298 0.5796 7.7324 8.8784-30.084 215.98-90.962 435.67-278.19 778.14-556.67 1101.4l-6.2085-85.401c234.97-274.92 404.33-607.23 490.98-958.16 56.847-271.81 38.754-218.26 43.655-227.9zm-411.88 294.69c8.0015-24.785-25.042 7.3494 179.25-126.57 22.02 3.3992-135.09 512.58-339.06 751.16-3.459-1.1172 0.998 21.236-33.281-199.56 30.034-63.869 103.18-152.07 193.09-425.04zm-22.116 0.2593 2.1826 5.2844c-44.04 138.79-108.61 264.6-177.57 392.19-13.872-67.619-1.5239-14.658-65.129-272.92 1.6279-3.6687-6.1187 1.1218 151.09-74.874 30.089-15.975 58.841-34.729 89.422-49.678z"/> <path d="m4104.3 1777.6-74.314-30.433c36.393-127.13 66.52-259.26 83.265-390.46 21.942-171.91 22.771-460.94 19.859-519.81-312.82 0.3432-644.84 16.223-938.91 133.07l51.285 153.94c207.32-50.275 359.01-94.804 644.02-104.55 69.959-2.1058 67.552-2.7574 73.395-0.449-20.584 321.72-20.461 390.32-114.03 695.32 436.13 101.91 785.48 383.44 1107.9 646.9-49.112-497.36-230.18-982.9-541.13-1376.4-170.81-201.79-162.29-193.44-176.18-190.79-25.197 50.938 14.415 373.5-96.794 847.46-10.516 44.795-20.91 93.761-38.422 136.22zm169.79-854.58c47.972 48.981 90.801 108.01 131.56 163.16 211.37 285.99 356.67 613.88 429.22 961.85 14.204 68.122 29.386 139.43 32.503 208.9l-63.142-49.161c-77.321-428.67-168.65-687.5-461.1-1107.1-72.867-94.164-68.226-86.599-71.328-93.586-4.1217-9.2799 1.7387-70.024 2.2934-84.074zm-70.541 514.18 30.544-169.83c114.04 142.47 278.25 468.41 341.98 767.64l-175.17-107.97c-76.299-246.33-205.72-434.13-207.44-445.18-1.2579-8.1485 8.1904-35.073 10.082-44.658zm173.02 474.06c-60.469-33.578-11.615-8.6641-253-126.86l66.473-269.3c25.666 30.99 125.46 210.6 186.52 396.16z"/> <path d="m3158.5 4103c-139.94 359.03-299.24 563.81-543.95 856.68 249.54-33.65 485.65-56.737 807-191.83 276.31-114.93 522.75-280.69 738.28-487.73-2.8901-10.225-5.1201-25.413-11.466-33.841-570.08-12.999-717.78-55.273-989.87-143.28zm8.7034 25.153 298.9 82.479c-115.22 90.564-291 144.15-428.51 193.39l129.61-275.87zm-162.44 332.01c4.5127-7.3979 13.306-28.588 19.251-33.608 13.795-11.63 218.64-40.903 468.58-212.43l219.07 32.394c-52.326 38.755-105.41 76.872-161.73 109.68-340.34 176.45-368.98 176.38-629.33 237.99l84.153-134.03zm865.11-20.181c-319 235.49-711.43 389.4-1168.6 435.54l51.269-58.318c63.36-2.7642 129.06-17.766 190.98-31.194 326.51-70.807 619.63-193 895.05-396.02l138.65-106.04c24.541 3.9521 50.614 3.4766 75.461 4.5073-59.412 52.126-119.18 104.55-182.81 151.52z"/> <path d="m3593.5 1595.8c-6.9861 26.136-13.322 53.187-25.085 77.67l120.13 20.656c43.355-131.16 85.556-351.09 83.948-487.14-227.39 6.6067-441.2 52.584-492.58 73.563l12.466 118.48c161.63-43.771 325.29-66.866 345.45-60.987-7.3985 75.976-15.182 148.77-44.331 257.76z"/> </svg>